<svg id="visual" viewBox="0 0 900 600" width="900" height="800" xmlns="http://www.w3.org/2000/svg" xmlns:xlink="http://www.w3.org/1999/xlink" version="1.1"><path d="M0 213L21.5 206C43 199 86 185 128.8 185C171.7 185 214.3 199 257.2 210.8C300 222.7 343 232.3 385.8 233.2C428.7 234 471.3 226 514.2 214.7C557 203.3 600 188.7 642.8 193.7C685.7 198.7 728.3 223.3 771.2 229.3C814 235.3 857 222.7 878.5 216.3L900 210L900 0L878.5 0C857 0 814 0 771.2 0C728.3 0 685.7 0 642.8 0C600 0 557 0 514.2 0C471.3 0 428.7 0 385.8 0C343 0 300 0 257.2 0C214.3 0 171.7 0 128.8 0C86 0 43 0 21.5 0L0 0Z" fill="#fa7268"></path><path d="M0 186L21.5 178.3C43 170.7 86 155.3 128.8 152.2C171.7 149 214.3 158 257.2 163.2C300 168.3 343 169.7 385.8 162.5C428.7 155.3 471.3 139.7 514.2 138.5C557 137.3 600 150.7 642.8 156.5C685.7 162.3 728.3 160.7 771.2 155.8C814 151 857 143 878.5 139L900 135L900 0L878.5 0C857 0 814 0 771.2 0C728.3 0 685.7 0 642.8 0C600 0 557 0 514.2 0C471.3 0 428.7 0 385.8 0C343 0 300 0 257.2 0C214.3 0 171.7 0 128.8 0C86 0 43 0 21.5 0L0 0Z" fill="#ef5f67"></path><path d="M0 110L21.5 117.5C43 125 86 140 128.8 147.8C171.7 155.7 214.3 156.3 257.2 151.3C300 146.3 343 135.7 385.8 133.3C428.7 131 471.3 137 514.2 136.5C557 136 600 129 642.8 119.8C685.7 110.7 728.3 99.3 771.2 102.5C814 105.7 857 123.3 878.5 132.2L900 141L900 0L878.5 0C857 0 814 0 771.2 0C728.3 0 685.7 0 642.8 0C600 0 557 0 514.2 0C471.3 0 428.7 0 385.8 0C343 0 300 0 257.2 0C214.3 0 171.7 0 128.8 0C86 0 43 0 21.5 0L0 0Z" fill="#e34c67"></path><path d="M0 117L21.5 114.2C43 111.3 86 105.7 128.8 98.3C171.7 91 214.3 82 257.2 83.2C300 84.3 343 95.7 385.8 98C428.7 100.3 471.3 93.7 514.2 92.7C557 91.7 600 96.3 642.8 96.8C685.7 97.3 728.3 93.7 771.2 88C814 82.3 857 74.7 878.5 70.8L900 67L900 0L878.5 0C857 0 814 0 771.2 0C728.3 0 685.7 0 642.8 0C600 0 557 0 514.2 0C471.3 0 428.7 0 385.8 0C343 0 300 0 257.2 0C214.3 0 171.7 0 128.8 0C86 0 43 0 21.5 0L0 0Z" fill="#d53867"></path><path d="M0 29L21.5 33.2C43 37.3 86 45.7 128.8 46.3C171.7 47 214.3 40 257.2 36C300 32 343 31 385.8 33.8C428.7 36.7 471.3 43.3 514.2 47.2C557 51 600 52 642.8 49.8C685.7 47.7 728.3 42.3 771.2 37.7C814 33 857 29 878.5 27L900 25L900 0L878.5 0C857 0 814 0 771.2 0C728.3 0 685.7 0 642.8 0C600 0 557 0 514.2 0C471.3 0 428.7 0 385.8 0C343 0 300 0 257.2 0C214.3 0 171.7 0 128.8 0C86 0 43 0 21.5 0L0 0Z" fill="#c62368"></path></svg>